<svg xmlns="http://www.w3.org/2000/svg" width="35.829" height="36.671" viewBox="0 0 35.829 36.671">
  <g id="icon" transform="translate(0)">
    <path id="Path_1334" data-name="Path 1334" d="M195.3,283.44a1.083,1.083,0,0,0,1.531,0l3.866-3.866a1.083,1.083,0,0,0-1.531-1.532l-3.1,3.1-1.413-1.413a1.083,1.083,0,0,0-1.532,1.532Zm0,0" transform="translate(-178.994 -257.834)"/>
    <path id="Path_1335" data-name="Path 1335" d="M138.7,217.008a8.6,8.6,0,1,0-8.6-8.6A8.606,8.606,0,0,0,138.7,217.008Zm0-15.026a6.43,6.43,0,1,1-6.43,6.43A6.437,6.437,0,0,1,138.7,201.982Zm0,0" transform="translate(-120.787 -185.504)"/>
    <path id="Path_1336" data-name="Path 1336" d="M32.327,2.306H30.352V1.083a1.083,1.083,0,1,0-2.165,0V2.306H26.059V1.083a1.083,1.083,0,0,0-2.166,0V2.306H11.936V1.083a1.083,1.083,0,0,0-2.166,0V2.306H7.643V1.083a1.083,1.083,0,0,0-2.166,0V2.306H3.5A3.506,3.506,0,0,0,0,5.808V33.169a3.506,3.506,0,0,0,3.5,3.5H32.327a3.506,3.506,0,0,0,3.5-3.5V5.808a3.506,3.506,0,0,0-3.5-3.5ZM33.663,33.17a1.338,1.338,0,0,1-1.336,1.336H3.5A1.338,1.338,0,0,1,2.165,33.17V11.309h31.5ZM2.165,5.808A1.338,1.338,0,0,1,3.5,4.471H5.477V5.694a1.083,1.083,0,0,0,2.166,0V4.471H9.77V5.694a1.083,1.083,0,0,0,2.166,0V4.471H23.893V5.694a1.083,1.083,0,0,0,2.166,0V4.471h2.128V5.694a1.083,1.083,0,0,0,2.166,0V4.471h1.975a1.338,1.338,0,0,1,1.336,1.336V9.143H2.165Zm0,0"/>
  </g>
</svg>
