<svg xmlns="http://www.w3.org/2000/svg" width="4.192" height="16.961" viewBox="0 0 4.192 16.961"><defs><style>.a{fill:#fff;}</style></defs><g transform="translate(-184.227)"><path class="a" d="M186.323,11.5a1.188,1.188,0,0,0,1.244-.975l.844-8.589a1.631,1.631,0,0,0-.546-1.358,2.352,2.352,0,0,0-3.085,0,1.63,1.63,0,0,0-.546,1.358l.844,8.589A1.188,1.188,0,0,0,186.323,11.5Z" transform="translate(0)"/><path class="a" d="M206.813,410.908a1.36,1.36,0,1,0,1.36,1.361A1.36,1.36,0,0,0,206.813,410.908Z" transform="translate(-20.49 -396.667)"/></g></svg>