<svg xmlns="http://www.w3.org/2000/svg" width="29.008" height="38" viewBox="0 0 29.008 38">
  <g id="icon" transform="translate(-50.529)">
    <g id="Group_627" data-name="Group 627" transform="translate(50.529)">
      <g id="Group_626" data-name="Group 626">
        <path id="Path_1364" data-name="Path 1364" d="M78.5.983h0a1.752,1.752,0,0,0-1.906.29l-2.47,2.187L70.762.454a1.777,1.777,0,0,0-2.372,0l-3.357,3-3.358-3a1.778,1.778,0,0,0-2.372,0L55.941,3.459,53.469,1.272a1.767,1.767,0,0,0-2.941,1.333V35.395a1.77,1.77,0,0,0,2.945,1.333l2.47-2.187,3.36,3.006a1.777,1.777,0,0,0,2.372,0l3.357-3,3.358,3a1.778,1.778,0,0,0,2.372,0l3.361-3.005L76.6,36.727a1.767,1.767,0,0,0,2.941-1.333V2.605A1.752,1.752,0,0,0,78.5.983ZM75.3,33.208a1.777,1.777,0,0,0-2.363.006l-3.36,3.005-3.357-3a1.778,1.778,0,0,0-2.372,0l-3.358,3-3.361-3.005a1.768,1.768,0,0,0-2.356-.006l-2.463,2.186V30.651L52.3,2.606l2.467,2.186a1.777,1.777,0,0,0,2.363-.006l3.36-3.005,3.357,3a1.778,1.778,0,0,0,2.372,0l3.358-3,3.361,3.005a1.768,1.768,0,0,0,2.356.006l2.463-2.187v22.54l.009,10.249Z" transform="translate(-50.529)"/>
      </g>
    </g>
    <g id="Group_629" data-name="Group 629" transform="translate(55.708 18.11)">
      <g id="Group_628" data-name="Group 628">
        <path id="Path_1365" data-name="Path 1365" d="M126.5,203.527h-16.87a.89.89,0,1,0,0,1.78H126.5a.89.89,0,0,0,0-1.78Z" transform="translate(-108.736 -203.527)"/>
      </g>
    </g>
    <g id="Group_631" data-name="Group 631" transform="translate(55.708 12.771)">
      <g id="Group_630" data-name="Group 630">
        <path id="Path_1366" data-name="Path 1366" d="M118.487,143.527h-8.861a.89.89,0,1,0,0,1.78h8.861a.89.89,0,1,0,0-1.78Z" transform="translate(-108.736 -143.527)"/>
      </g>
    </g>
    <g id="Group_633" data-name="Group 633" transform="translate(55.708 23.449)">
      <g id="Group_632" data-name="Group 632">
        <path id="Path_1367" data-name="Path 1367" d="M126.5,263.527h-16.87a.89.89,0,0,0,0,1.78H126.5a.89.89,0,0,0,0-1.78Z" transform="translate(-108.736 -263.527)"/>
      </g>
    </g>
  </g>
</svg>
