<svg xmlns="http://www.w3.org/2000/svg" width="161.682" height="32" viewBox="0 0 161.682 32">
  <g id="logo" transform="translate(-19.6 -218.225)">
    <path id="Path_940" data-name="Path 940" d="M20.083,220.405h4.15a.49.49,0,0,1,.483.483v6.91h.121c1.33-4.21,4.089-8.1,8.582-8.1,3.062,0,4.976,1.612,5.58,5.278a15.476,15.476,0,0,0-4.915-.786c-4.734,0-8.219,2.216-9.367,4.331v21.434a.49.49,0,0,1-.483.483h-4.15a.49.49,0,0,1-.483-.483V220.868A.486.486,0,0,1,20.083,220.405Zm19.1,7.313a19.228,19.228,0,0,0-.181-2.76c3,1.148,5.459,3.425,5.459,7.554v17.405a.49.49,0,0,1-.483.483H39.644a.49.49,0,0,1-.483-.483v-22.2Z" transform="translate(0 -1.178)" fill="#fff"/>
    <path id="Path_941" data-name="Path 941" d="M174.3,235.8a10.8,10.8,0,0,1,7.031-10.5,27.689,27.689,0,0,0-1.269,7.252H196.62a26.919,26.919,0,0,0-.846-7.212c4.19,1.873,6.406,5.479,6.265,10.455a.473.473,0,0,1-.483.463H179.981a27.553,27.553,0,0,0,1.491,9.549C176.576,244.257,174.3,240.833,174.3,235.8Zm14.1-11.764a18.624,18.624,0,0,0-7.091,1.269c1.39-3.848,3.787-5.7,7.373-5.7,3.545,0,5.882,1.914,7.091,5.761A19.134,19.134,0,0,0,188.4,224.032Zm-6.91,21.8a23.453,23.453,0,0,0,7.373.967,26.334,26.334,0,0,0,6.97-.846,7.217,7.217,0,0,1-7.091,5.1C185.037,251.046,182.761,249.011,181.492,245.829ZM197.2,240.49h4.351a.475.475,0,0,1,.443.645c-.906,2.5-3.284,3.989-6.164,4.815a16.674,16.674,0,0,0,.886-5A.486.486,0,0,1,197.2,240.49Z" transform="translate(-123.536 -1.098)" fill="#fff"/>
    <g id="Group_422" data-name="Group 422" transform="translate(81.188 218.225)">
      <path id="Path_942" data-name="Path 942" d="M421.629,241.626l-6-5.822a1.85,1.85,0,0,1,0-2.679l2.3-2.216h0l8.9-8.662a.474.474,0,0,0,0-.665l-3.022-2.921a.5.5,0,0,0-.685,0l-8.9,8.662a5,5,0,0,0-.806,6.2,1.855,1.855,0,0,1,0,1.934,5,5,0,0,0,.806,6.2l8.9,8.662a.5.5,0,0,0,.685,0l3.022-2.921a.474.474,0,0,0,0-.665l-5.2-5.117Z" transform="translate(-395.083 -218.465)" fill="#fff"/>
      <path id="Path_943" data-name="Path 943" d="M330.658,227.064l6,5.822a1.85,1.85,0,0,1,0,2.679l-2.3,2.216h0l-8.9,8.662a.474.474,0,0,0,0,.665l3.022,2.921a.5.5,0,0,0,.685,0l8.9-8.662a5,5,0,0,0,.806-6.2,1.855,1.855,0,0,1,0-1.934,5,5,0,0,0-.806-6.2l-8.9-8.662a.5.5,0,0,0-.685,0l-3.022,2.921a.474.474,0,0,0,0,.665l5.2,5.117Z" transform="translate(-325.325 -218.225)" fill="#fff"/>
    </g>
    <path id="Path_944" data-name="Path 944" d="M500.3,240.928V223.583a.49.49,0,0,1,.484-.483h4.331a.49.49,0,0,1,.484.483v22.2a16.689,16.689,0,0,0,.181,2.579C502.7,247.294,500.3,245.018,500.3,240.928Zm5.459,7.454a14.792,14.792,0,0,0,5.1.846c4.855,0,8.34-2.156,9.488-4.271V223.583a.49.49,0,0,1,.484-.483h4.21a.49.49,0,0,1,.483.483v29.049a.49.49,0,0,1-.483.483h-4.21a.49.49,0,0,1-.484-.483v-7.091h-.06c-1.33,4.271-4.09,8.28-8.763,8.28C508.277,253.841,506.363,252.169,505.759,248.382Z" transform="translate(-383.864 -3.893)" fill="#fff"/>
    <path id="Path_945" data-name="Path 945" d="M655.424,240.43h4.492a.5.5,0,0,1,.484.5c-.02.423-.02.806-.02,1.249a14.486,14.486,0,0,0,.544,4.15c-3.425-.947-5.641-2.8-5.963-5.338A.457.457,0,0,1,655.424,240.43Zm19.279,4.432c0-3.183-1.491-5.157-6.124-6.91l-5.4-2.035c-4.915-1.853-6.849-3.485-6.849-6.366,0-2.337,1.45-4.089,4.271-5.036a7.42,7.42,0,0,0-.121,1.148c0,3.243,1.329,4.432,5.882,6.184l5.1,1.914c4.915,1.853,7.212,3.908,7.212,7.091,0,2.518-1.491,4.21-4.089,5.157A7.405,7.405,0,0,0,674.7,244.862ZM666.846,219.6a5.88,5.88,0,0,1,6.245,4.734,21.948,21.948,0,0,0-6.184-.725,18.411,18.411,0,0,0-6.305.906C661.024,222,663,219.6,666.846,219.6ZM660.9,246.312a24.139,24.139,0,0,0,6.245.786,21.7,21.7,0,0,0,7.434-1.088c-.483,2.579-2.76,5.036-7.031,5.036C664.086,251.046,661.87,249.374,660.9,246.312Zm12.187-21.978c3.586.927,5.278,2.78,5.822,4.935a.472.472,0,0,1-.463.584h-4.371a.5.5,0,0,1-.484-.5A17.251,17.251,0,0,0,673.091,224.334Z" transform="translate(-507.36 -1.098)" fill="#fff"/>
    <circle id="Ellipse_6" data-name="Ellipse 6" cx="3.586" cy="3.586" r="3.586" transform="translate(174.111 242.011)" fill="#fff"/>
  </g>
</svg>
