<svg xmlns="http://www.w3.org/2000/svg" width="30.4" height="38" viewBox="0 0 30.4 38">
  <path id="icon" d="M71.6,46.08v7.286a.633.633,0,0,0,.633.633H93.764a.633.633,0,0,0,.633-.633v-15.2a3.177,3.177,0,0,0-.373-1.49l-4.694-8.8V16.633A.633.633,0,0,0,88.7,16H72.231a.633.633,0,0,0-.633.633v2.222L64.442,21.1a.633.633,0,0,0-.415.794Zm-.807-21.663-.379-1.209,1.186-.371v10.52L69.167,25.59l1.209-.378A.633.633,0,0,0,70.791,24.418Zm22.34,13.749V52.733h-3.8a5.707,5.707,0,0,1-5.7-5.58.633.633,0,0,0-.1-.475L79.427,40.6a1.9,1.9,0,1,1,3.149-2.127l.011.016,3.7,5.117a.633.633,0,0,0,.513.262h1.9a.633.633,0,0,0,.633-.633V30.567l3.577,6.706A1.908,1.908,0,0,1,93.131,38.167ZM76.664,48.3H75.4V21.7h1.267a.633.633,0,0,0,.633-.633V19.8h6.333v1.267a.633.633,0,0,0,.633.633h1.267V40.4l-1.912-2.646a3.194,3.194,0,0,0-.244-.313,3.8,3.8,0,1,0-5.174.612,3.176,3.176,0,0,0,.176,3.255l3.989,5.9a6.919,6.919,0,0,0,.761,2.988H77.3V48.933A.633.633,0,0,0,76.664,48.3Zm2.564-11.389c-.076.051-.148.106-.218.162a2.533,2.533,0,1,1,3.352-.4,3.168,3.168,0,0,0-3.134.233ZM72.864,17.267h15.2V42.6h-.943l-.324-.448V21.067a.633.633,0,0,0-.633-.633H84.9V19.167a.633.633,0,0,0-.633-.633h-7.6a.633.633,0,0,0-.633.633v1.267H74.764a.633.633,0,0,0-.633.633V48.933a.633.633,0,0,0,.633.633h1.267v1.267a.633.633,0,0,0,.633.633h7.3a7.023,7.023,0,0,0,1.37,1.267H72.864ZM71.6,20.183V21.51l-2.168.679a.633.633,0,0,0-.415.794l.378,1.209-1.209.378a.633.633,0,0,0-.415.794L71.6,37.6V41.84L65.425,22.115Z" transform="translate(-63.997 -16)" fill="#fff"/>
</svg>
