<svg xmlns="http://www.w3.org/2000/svg" width="30.174" height="24.923" viewBox="0 0 30.174 24.923">
  <g id="icon" transform="translate(0.25 -42.417)">
    <g id="Group_417" data-name="Group 417" transform="translate(0 42.667)">
      <g id="Group_416" data-name="Group 416" transform="translate(0 0)">
        <path id="Path_922" data-name="Path 922" d="M163.4,58.8a8.585,8.585,0,0,0,3.816-6.971c0-5.051-4.853-9.159-10.819-9.159-4.815,0-8.976,2.622-10.359,6.523a.608.608,0,0,0,.38.778.621.621,0,0,0,.788-.375c1.19-3.359,4.969-5.705,9.192-5.705,5.283,0,9.582,3.561,9.582,7.937a7.5,7.5,0,0,1-3.71,6.26.606.606,0,0,0-.215.784l.6,1.2-1.75-.988a.633.633,0,0,0-.529-.04,11.15,11.15,0,0,1-2.716.648.61.61,0,1,0,.14,1.213,12.415,12.415,0,0,0,2.742-.619l3.272,1.846a.616.616,0,0,0,.307.081.623.623,0,0,0,.425-.167.6.6,0,0,0,.129-.717Z" transform="translate(-137.54 -42.667)" stroke="#000" stroke-width="0.5"/>
        <path id="Path_923" data-name="Path 923" d="M9.273,191.979c-5.114,0-9.273,3.286-9.273,7.327a6.867,6.867,0,0,0,3.357,5.637l-.841,2.075a.606.606,0,0,0,.156.677.618.618,0,0,0,.418.161.627.627,0,0,0,.278-.065l3.065-1.514a11.5,11.5,0,0,0,2.84.357c5.114,0,9.273-3.286,9.273-7.327S14.387,191.979,9.273,191.979Zm0,13.434a10.247,10.247,0,0,1-2.739-.374.627.627,0,0,0-.444.041l-1.821.9.429-1.058a.606.606,0,0,0-.262-.753,5.732,5.732,0,0,1-3.2-4.861c0-3.367,3.605-6.106,8.037-6.106s8.035,2.739,8.035,6.106S13.7,205.413,9.271,205.413Z" transform="translate(0 -183.432)" stroke="#000" stroke-width="0.5"/>
      </g>
    </g>
  </g>
</svg>
