<svg xmlns="http://www.w3.org/2000/svg" width="40.887" height="42.192" viewBox="0 0 40.887 42.192">
  <g id="icon" transform="translate(-17.44)">
    <g id="Group_393" data-name="Group 393" transform="translate(17.44 21.404)">
      <g id="Group_392" data-name="Group 392">
        <path id="Path_900" data-name="Path 900" d="M35.146,288.389c-11.418,0-17.706,5.4-17.706,15.209a1.387,1.387,0,0,0,1.387,1.387H51.464a1.387,1.387,0,0,0,1.387-1.387C52.851,293.791,46.563,288.389,35.146,288.389ZM20.264,302.211c.546-7.333,5.545-11.049,14.881-11.049s14.336,3.715,14.882,11.049Z" transform="translate(-17.44 -288.389)"/>
      </g>
    </g>
    <g id="Group_395" data-name="Group 395" transform="translate(25.946)">
      <g id="Group_394" data-name="Group 394">
        <path id="Path_901" data-name="Path 901" d="M141.249,0a9.089,9.089,0,0,0-9.2,9.384c0,5.506,4.127,9.985,9.2,9.985s9.2-4.479,9.2-9.985A9.089,9.089,0,0,0,141.249,0Zm0,16.6c-3.543,0-6.426-3.235-6.426-7.212a6.306,6.306,0,0,1,6.426-6.611,6.377,6.377,0,0,1,6.426,6.611C147.674,13.361,144.792,16.6,141.249,16.6Z" transform="translate(-132.049)"/>
      </g>
    </g>
    <ellipse id="Ellipse_24" data-name="Ellipse 24" cx="10.443" cy="11.096" rx="10.443" ry="11.096" transform="translate(37.44 20)" fill="#fff"/>
    <g id="question-mark" transform="translate(-100.168 24)">
      <path id="Path_1260" data-name="Path 1260" d="M396.857,788.2h-.688a.879.879,0,0,0-.879.879v.95a.879.879,0,0,0,.879.879h.688a.879.879,0,0,0,.879-.879v-.95A.878.878,0,0,0,396.857,788.2Z" transform="translate(-248.981 -776.658)"/>
      <path id="Path_1261" data-name="Path 1261" d="M143.024,4.185l1.269.158a.879.879,0,0,0,.93-.561,2.708,2.708,0,0,1,.764-1.132,2.59,2.59,0,0,1,1.726-.586,2.477,2.477,0,0,1,1.7.561,1.74,1.74,0,0,1,.631,1.348,1.678,1.678,0,0,1-.356,1.037,11.746,11.746,0,0,1-1.416,1.258A5.965,5.965,0,0,0,146.7,8a4,4,0,0,0-.387,1.688.878.878,0,0,0,.878.915h.717a.88.88,0,0,0,.876-.8,2.217,2.217,0,0,1,.165-.742,4.125,4.125,0,0,1,1.064-1.144,11.052,11.052,0,0,0,2.164-2.171,3.109,3.109,0,0,0,.507-1.691,3.681,3.681,0,0,0-1.376-2.832A5.39,5.39,0,0,0,147.6,0a5.2,5.2,0,0,0-3.574,1.2,4.141,4.141,0,0,0-1.409,2.423A.473.473,0,0,0,143.024,4.185Z" transform="translate(0 0)"/>
    </g>
  </g>
</svg>
