<svg xmlns="http://www.w3.org/2000/svg" width="23.986" height="23.989" viewBox="0 0 23.986 23.989">
  <path id="icon" d="M23.842,10.433l0,0L14.055.646a2.208,2.208,0,0,0-3.123,0l-9.78,9.78-.01.01A2.207,2.207,0,0,0,2.611,14.2c.023,0,.045,0,.068,0h.39v7.2a2.588,2.588,0,0,0,2.585,2.585H9.482a.7.7,0,0,0,.7-.7V17.639a1.181,1.181,0,0,1,1.179-1.179h2.258A1.18,1.18,0,0,1,14.8,17.639v5.646a.7.7,0,0,0,.7.7h3.828A2.588,2.588,0,0,0,21.917,21.4V14.2h.362a2.209,2.209,0,0,0,1.563-3.769Zm-1,2.128a.8.8,0,0,1-.568.235H21.215a.7.7,0,0,0-.7.7v7.9a1.18,1.18,0,0,1-1.179,1.179H16.207V17.639a2.588,2.588,0,0,0-2.585-2.585H11.364a2.588,2.588,0,0,0-2.585,2.585v4.943H5.653A1.181,1.181,0,0,1,4.474,21.4V13.5a.7.7,0,0,0-.7-.7H2.692a.8.8,0,0,1-.553-1.37h0L11.926,1.64a.8.8,0,0,1,1.135,0l9.783,9.783,0,0a.8.8,0,0,1,0,1.134Zm0,0" transform="translate(-0.5 0.001)"/>
</svg>
