<svg xmlns="http://www.w3.org/2000/svg" width="37.577" height="37.577" viewBox="0 0 37.577 37.577">
  <g id="icon" transform="translate(0.5 0.5)">
    <g id="Group_620" data-name="Group 620" transform="translate(0 0)">
      <path id="Path_1337" data-name="Path 1337" d="M20,36.577H16.582a2.283,2.283,0,0,1-2.265-2.012l-.364-2.859a14.4,14.4,0,0,1-2.094-.867L9.582,32.609a2.273,2.273,0,0,1-3.025-.192l-2.4-2.4A2.267,2.267,0,0,1,3.97,27L5.74,24.722a14.071,14.071,0,0,1-.867-2.094l-2.865-.364A2.288,2.288,0,0,1,0,20V16.582a2.283,2.283,0,0,1,2.012-2.265l2.859-.364a14.4,14.4,0,0,1,.867-2.094L3.97,9.582a2.272,2.272,0,0,1,.194-3.027l2.4-2.4A2.269,2.269,0,0,1,9.58,3.969L11.857,5.74a14.351,14.351,0,0,1,2.1-.867l.364-2.865A2.282,2.282,0,0,1,16.582,0H20A2.283,2.283,0,0,1,22.26,2.012l.364,2.859a14.351,14.351,0,0,1,2.1.867L27,3.969a2.272,2.272,0,0,1,3.025.194l2.4,2.4a2.267,2.267,0,0,1,.186,3.016l-1.769,2.278a14.07,14.07,0,0,1,.867,2.094l2.865.364a2.285,2.285,0,0,1,2.006,2.266V20a2.283,2.283,0,0,1-2.012,2.265l-2.859.364a14.4,14.4,0,0,1-.867,2.094L32.609,27a2.27,2.27,0,0,1-.194,3.025l-2.4,2.4A2.266,2.266,0,0,1,27,32.607L24.72,30.838a14.071,14.071,0,0,1-2.094.867l-.364,2.865A2.285,2.285,0,0,1,20,36.577ZM11.781,29.17a.773.773,0,0,1,.372.1,12.792,12.792,0,0,0,2.7,1.122.761.761,0,0,1,.546.636l.427,3.353a.77.77,0,0,0,.753.677H20a.767.767,0,0,0,.751-.669l.428-3.359a.761.761,0,0,1,.546-.636,12.792,12.792,0,0,0,2.7-1.122.76.76,0,0,1,.838.064L27.93,31.4a.75.75,0,0,0,1-.052l2.416-2.416a.754.754,0,0,0,.059-1.006L29.33,25.264a.761.761,0,0,1-.064-.838,12.792,12.792,0,0,0,1.122-2.7.761.761,0,0,1,.636-.546l3.353-.427A.773.773,0,0,0,35.053,20V16.582a.767.767,0,0,0-.669-.751L31.025,15.4a.761.761,0,0,1-.636-.546,12.792,12.792,0,0,0-1.122-2.7.758.758,0,0,1,.064-.838L31.4,8.647a.747.747,0,0,0-.05-1L28.939,5.235a.75.75,0,0,0-1.006-.059L25.266,7.248a.763.763,0,0,1-.84.064,12.739,12.739,0,0,0-2.7-1.122.761.761,0,0,1-.546-.636L20.75,2.2A.773.773,0,0,0,20,1.524H16.582a.767.767,0,0,0-.751.669L15.4,5.552a.765.765,0,0,1-.546.637,12.735,12.735,0,0,0-2.7,1.12.763.763,0,0,1-.84-.062L8.646,5.174a.747.747,0,0,0-1,.05L5.234,7.642a.754.754,0,0,0-.059,1.006l2.073,2.667a.761.761,0,0,1,.064.838,12.713,12.713,0,0,0-1.122,2.7.761.761,0,0,1-.636.546L2.2,15.829a.77.77,0,0,0-.677.753V20a.767.767,0,0,0,.669.751l3.359.428a.761.761,0,0,1,.636.546,12.792,12.792,0,0,0,1.122,2.7.758.758,0,0,1-.064.838L5.173,27.93a.747.747,0,0,0,.05,1l2.416,2.416a.753.753,0,0,0,1.006.059l2.667-2.073a.785.785,0,0,1,.469-.159Z" transform="translate(0 0)" stroke="#000" stroke-width="1"/>
    </g>
    <g id="Group_621" data-name="Group 621" transform="translate(10.668 10.668)">
      <path id="Path_1338" data-name="Path 1338" d="M14.62,22.241a7.62,7.62,0,1,1,7.62-7.62A7.629,7.629,0,0,1,14.62,22.241Zm0-13.716a6.1,6.1,0,1,0,6.1,6.1A6.1,6.1,0,0,0,14.62,8.524Z" transform="translate(-7 -7)" stroke="#000" stroke-width="1"/>
    </g>
  </g>
</svg>
